<?xml version="1.0" encoding="iso-8859-1"?>
<!-- Uploaded to: SVG Repo, www.svgrepo.com, Generator: SVG Repo Mixer Tools -->
<svg version="1.1" id="Layer_1" xmlns="http://www.w3.org/2000/svg" xmlns:xlink="http://www.w3.org/1999/xlink" 
	 viewBox="0 0 512 512" xml:space="preserve">
<g>
	<path style="fill:#FFC61B;" d="M256,428.921c-8.044,0-14.564-6.522-14.564-14.564V308.027c0-8.043,6.521-14.564,14.564-14.564
		s14.564,6.522,14.564,14.564v106.329C270.564,422.399,264.044,428.921,256,428.921z"/>
	<path style="fill:#FFC61B;" d="M256,267.348c-8.044,0-14.564-6.522-14.564-14.564v-21.94c0-8.043,6.521-14.564,14.564-14.564
		s14.564,6.522,14.564,14.564v21.94C270.564,260.828,264.044,267.348,256,267.348z"/>
</g>
<circle style="fill:#FEE187;" cx="132.1" cy="392.702" r="45.441"/>
<path style="fill:#FFC61B;" d="M132.094,452.711c-33.091,0-60.013-26.921-60.013-60.012c0-33.092,26.921-60.013,60.013-60.013
	s60.013,26.921,60.013,60.013C192.106,425.788,165.185,452.711,132.094,452.711z M132.094,361.815
	c-17.029,0-30.884,13.855-30.884,30.884s13.854,30.883,30.884,30.883s30.884-13.854,30.884-30.883
	C162.978,375.67,149.123,361.815,132.094,361.815z"/>
<rect x="84.57" y="223.434" transform="matrix(-0.7071 0.7071 -0.7071 -0.7071 390.4841 353.8525)" style="fill:#FEE187;" width="74.773" height="68.729"/>
<g>
	<path style="fill:#FFC61B;" d="M119.809,323.094c-3.729,0-7.454-1.423-10.299-4.266l-48.597-48.597
		c-2.731-2.732-4.266-6.436-4.266-10.299s1.535-7.566,4.266-10.299l52.878-52.878c5.687-5.686,14.91-5.685,20.597,0l48.597,48.597
		c2.731,2.732,4.266,6.436,4.266,10.299c0,3.863-1.535,7.566-4.266,10.299l-52.878,52.878
		C127.263,321.671,123.536,323.094,119.809,323.094z M91.809,259.931l28,28.002l32.281-32.281l-28-28L91.809,259.931z"/>
	<path style="fill:#FFC61B;" d="M426.862,263.339H324.835c-8.044,0-14.564-6.522-14.564-14.564c0-8.043,6.521-14.564,14.564-14.564
		h102.027c8.044,0,14.564,6.522,14.564,14.564C441.426,256.817,434.906,263.339,426.862,263.339z"/>
	<path style="fill:#FFC61B;" d="M426.862,337.165H324.835c-8.044,0-14.564-6.522-14.564-14.564s6.521-14.564,14.564-14.564h102.027
		c8.044,0,14.564,6.522,14.564,14.564S434.906,337.165,426.862,337.165z"/>
	<path style="fill:#FFC61B;" d="M426.862,410.989H324.835c-8.044,0-14.564-6.522-14.564-14.564s6.521-14.564,14.564-14.564h102.027
		c8.044,0,14.564,6.522,14.564,14.564S434.906,410.989,426.862,410.989z"/>
</g>
<polygon style="fill:#FEE187;" points="451.335,149.949 353.889,20.539 199.252,149.949 "/>
<path style="fill:#FFC61B;" d="M497.435,222.933c8.044,0,14.564-6.522,14.564-14.564v-57.409c0-8.043-6.521-14.564-14.564-14.564
	h-38.074L365.523,11.778c-2.402-3.188-6.008-5.252-9.974-5.708c-3.964-0.457-7.946,0.737-11.008,3.3L192.754,136.395H14.564
	C6.521,136.395,0,142.917,0,150.959v340.502c0,8.043,6.521,14.564,14.564,14.564h482.871c8.044,0,14.564-6.522,14.564-14.564
	V297.708c0-8.043-6.521-14.564-14.564-14.564s-14.564,6.522-14.564,14.564v179.188H29.129V165.524h453.742v42.844
	C482.871,216.412,489.392,222.933,497.435,222.933z M351.477,41.549l70.658,93.835H239.351L351.477,41.549z"/>
</svg>