<?xml version="1.0" standalone="no"?><svg xmlns="http://www.w3.org/2000/svg" viewBox="0 0 1440 320"><path fill="#ff5500" fill-opacity="0.5" d="M0,0L40,42.7C80,85,160,171,240,186.7C320,203,400,149,480,128C560,107,640,117,720,154.7C800,192,880,256,960,272C1040,288,1120,256,1200,224C1280,192,1360,160,1400,144L1440,128L1440,320L1400,320C1360,320,1280,320,1200,320C1120,320,1040,320,960,320C880,320,800,320,720,320C640,320,560,320,480,320C400,320,320,320,240,320C160,320,80,320,40,320L0,320Z"></path></svg>