<?xml version="1.0" standalone="no"?><svg xmlns="http://www.w3.org/2000/svg" viewBox="0 0 1440 320"><path fill="#ff5500" fill-opacity="1" d="M0,256L30,234.7C60,213,120,171,180,133.3C240,96,300,64,360,48C420,32,480,32,540,53.3C600,75,660,117,720,160C780,203,840,245,900,240C960,235,1020,181,1080,181.3C1140,181,1200,235,1260,240C1320,245,1380,203,1410,181.3L1440,160L1440,0L1410,0C1380,0,1320,0,1260,0C1200,0,1140,0,1080,0C1020,0,960,0,900,0C840,0,780,0,720,0C660,0,600,0,540,0C480,0,420,0,360,0C300,0,240,0,180,0C120,0,60,0,30,0L0,0Z"></path></svg>