<?xml version="1.0" standalone="no"?><svg xmlns="http://www.w3.org/2000/svg" viewBox="0 0 1440 320"><path fill="#ff5500" fill-opacity="1" d="M0,32L30,37.3C60,43,120,53,180,90.7C240,128,300,192,360,202.7C420,213,480,171,540,138.7C600,107,660,85,720,101.3C780,117,840,171,900,192C960,213,1020,203,1080,192C1140,181,1200,171,1260,186.7C1320,203,1380,245,1410,266.7L1440,288L1440,320L1410,320C1380,320,1320,320,1260,320C1200,320,1140,320,1080,320C1020,320,960,320,900,320C840,320,780,320,720,320C660,320,600,320,540,320C480,320,420,320,360,320C300,320,240,320,180,320C120,320,60,320,30,320L0,320Z"></path></svg>